<svg xmlns="http://www.w3.org/2000/svg" xmlns:xlink="http://www.w3.org/1999/xlink" width="1080" zoomAndPan="magnify" viewBox="0 0 810 809.999993" height="1080" preserveAspectRatio="xMidYMid meet" version="1.0"><defs><clipPath id="ce61321faf"><path d="M 510 422 L 638 422 L 638 496.6875 L 510 496.6875 Z M 510 422 " clip-rule="nonzero"/></clipPath><clipPath id="eef964d62c"><path d="M 89.667969 89.667969 L 720.417969 89.667969 L 720.417969 720.417969 L 89.667969 720.417969 Z M 89.667969 89.667969 " clip-rule="nonzero"/></clipPath></defs><rect x="-81" width="972" fill="#ffffff" y="-80.999999" height="971.999992" fill-opacity="1"/><rect x="-81" width="972" fill="#ffffff" y="-80.999999" height="971.999992" fill-opacity="1"/><g clip-path="url(#ce61321faf)"><path fill="#000000" d="M 547.5 422.894531 C 546.226562 421.6875 544.21875 421.75 543.019531 423.023438 L 510.867188 457.15625 C 509.714844 458.378906 509.714844 460.292969 510.867188 461.519531 L 543.019531 495.667969 C 543.644531 496.332031 544.484375 496.664062 545.324219 496.664062 C 546.105469 496.664062 546.886719 496.375 547.5 495.796875 C 548.773438 494.59375 548.832031 492.582031 547.628906 491.304688 L 517.535156 459.335938 L 547.628906 427.382812 C 548.828125 426.109375 548.773438 424.097656 547.5 422.894531 Z M 637.074219 457.171875 L 604.921875 423.023438 C 603.71875 421.742188 601.710938 421.691406 600.4375 422.894531 C 599.167969 424.097656 599.109375 426.109375 600.3125 427.382812 L 630.410156 459.351562 L 600.3125 491.304688 C 599.109375 492.582031 599.167969 494.59375 600.4375 495.796875 C 601.050781 496.375 601.835938 496.664062 602.617188 496.664062 C 603.457031 496.664062 604.296875 496.332031 604.921875 495.667969 L 637.074219 461.535156 C 638.226562 460.3125 638.226562 458.398438 637.074219 457.171875 Z M 588.011719 422.683594 C 586.375 422.058594 584.542969 422.875 583.914062 424.511719 L 558.113281 491.902344 C 557.484375 493.539062 558.300781 495.378906 559.933594 496.007812 C 560.308594 496.152344 560.691406 496.21875 561.070312 496.21875 C 562.34375 496.21875 563.546875 495.445312 564.03125 494.179688 L 589.832031 426.789062 C 590.460938 425.152344 589.644531 423.3125 588.011719 422.683594 Z M 588.011719 422.683594 " fill-opacity="1" fill-rule="nonzero"/></g><g clip-path="url(#eef964d62c)"><path fill="#a3a3a3" d="M 558.800781 368.039062 L 251.195312 368.039062 C 270.109375 349.554688 293.136719 335.261719 318.734375 326.71875 C 342.761719 344.578125 372.628906 355.160156 404.996094 355.160156 C 437.363281 355.160156 467.230469 344.578125 491.261719 326.71875 C 516.859375 335.261719 539.886719 349.554688 558.800781 368.039062 Z M 704.09375 623.375 L 105.902344 623.375 C 96.972656 623.375 89.667969 630.679688 89.667969 639.609375 L 89.667969 661.671875 C 89.667969 670.601562 96.976562 677.90625 105.902344 677.90625 L 135.035156 677.90625 L 135.035156 703.988281 C 135.035156 712.917969 142.355469 720.222656 151.269531 720.222656 L 658.726562 720.222656 C 667.640625 720.222656 674.960938 712.902344 674.960938 703.988281 L 674.960938 677.90625 L 704.09375 677.90625 C 713.019531 677.90625 720.324219 670.597656 720.324219 661.671875 L 720.324219 639.609375 C 720.324219 630.6875 713.019531 623.375 704.09375 623.375 Z M 404.996094 336.050781 C 473.851562 336.050781 529.667969 280.917969 529.667969 212.910156 C 529.667969 144.902344 473.851562 89.769531 404.996094 89.769531 C 336.144531 89.769531 280.328125 144.902344 280.328125 212.910156 C 280.328125 280.917969 336.144531 336.046875 404.996094 336.046875 Z M 132.214844 405.808594 C 130.773438 395.910156 138.351562 387.148438 148.355469 387.148438 L 661.636719 387.148438 C 671.640625 387.148438 679.21875 395.910156 677.777344 405.808594 L 648.882812 604.265625 L 161.109375 604.265625 Z M 328.804688 495.707031 C 328.804688 537.792969 362.910156 571.898438 404.996094 571.898438 C 447.082031 571.898438 481.191406 537.792969 481.191406 495.707031 C 481.191406 453.621094 447.082031 419.511719 404.996094 419.515625 C 362.910156 419.515625 328.804688 453.621094 328.804688 495.707031 Z M 384.410156 522.480469 C 387.746094 518.417969 387.164062 512.417969 383.101562 509.078125 L 366.859375 495.707031 L 383.101562 482.332031 C 387.164062 478.992188 387.746094 472.992188 384.410156 468.929688 C 381.070312 464.867188 375.070312 464.285156 371.007812 467.625 L 345.957031 488.253906 C 341.25 492.003906 341.136719 499.191406 345.835938 503.058594 L 371.007812 523.785156 C 375.070312 527.125 381.070312 526.539062 384.410156 522.480469 Z M 397.007812 525.546875 C 402.101562 526.90625 407.332031 523.878906 408.691406 518.789062 L 419.742188 477.546875 C 421.101562 472.457031 418.078125 467.226562 412.984375 465.867188 C 407.894531 464.503906 402.664062 467.527344 401.300781 472.621094 L 390.25 513.863281 C 388.890625 518.953125 391.917969 524.183594 397.007812 525.546875 Z M 425.585938 522.480469 C 428.925781 526.542969 434.925781 527.125 438.988281 523.785156 L 464.15625 503.058594 C 468.859375 499.191406 468.746094 492.003906 464.039062 488.253906 L 438.988281 467.625 C 434.925781 464.285156 428.925781 464.867188 425.585938 468.929688 C 422.246094 472.992188 422.832031 478.992188 426.894531 482.332031 L 443.136719 495.707031 L 426.894531 509.078125 C 422.832031 512.417969 422.25 518.417969 425.585938 522.480469 Z M 425.585938 522.480469 " fill-opacity="1" fill-rule="nonzero"/></g></svg>